<?xml version="1.0" encoding="utf-8"?>
<!-- Generator: Adobe Illustrator 21.0.2, SVG Export Plug-In . SVG Version: 6.00 Build 0)  -->
<svg version="1.1" id="Layer_1" xmlns="http://www.w3.org/2000/svg" xmlns:xlink="http://www.w3.org/1999/xlink" x="0px" y="0px"
	 viewBox="0 0 750 366" style="enable-background:new 0 0 750 366;" xml:space="preserve">
<g>
	<g>
		<path d="M139,261.1c-0.5,0-0.9-0.2-1.2-0.5L120.9,242c-0.3-0.3-0.5-0.7-0.5-1.2V104.2v-0.5h0.7h10.3c0.5,0,0.7,0.2,0.7,0.5v131.9
			c0,0.5,0.2,0.9,0.5,1.2l10.3,11.5c0.3,0.3,0.7,0.5,1.2,0.5h11.2c0.5,0,0.7,0.2,0.7,0.7v10.3c0,0.5-0.2,0.7-0.7,0.7H139z"/>
		<path d="M243.1,262.3c-0.7,0-1.1-0.2-1.2-0.7l-31.3-54.5c-0.3-0.3-0.3-0.7,0-1.2l31.3-54.5c0.3-0.3,0.7-0.5,1.2-0.5h62.8
			c0.5,0,0.9,0.2,1.2,0.5l31.3,54.5c0.3,0.5,0.3,0.9,0,1.2l-31.3,54.5c-0.3,0.5-0.7,0.7-1.2,0.7H243.1z M299.3,250.8
			c0.6,0,1-0.2,1-0.7l24.9-43c0.3-0.3,0.3-0.7,0-1.2l-24.9-43c0-0.3-0.3-0.5-1-0.5h-49.6c-0.7,0-1,0.2-1,0.5l-24.9,43
			c-0.3,0.5-0.3,0.9,0,1.2l24.9,43c0,0.5,0.3,0.7,1,0.7H299.3z"/>
		<path d="M417.5,187.5v15.9h-60.3v-15.9H417.5z"/>
		<path d="M498.6,130.1c-0.3,0.3-0.5,0.7-0.5,1.2v20.3c0,0.5,0.2,0.7,0.7,0.7h22.2c0.5,0,0.7,0.2,0.7,0.7v10.3
			c0,0.5-0.2,0.7-0.7,0.7h-22.2c-0.5,0-0.7,0.2-0.7,0.7v95.5c0,0.5-0.2,0.7-0.7,0.7h-10.5c-0.3,0-0.5-0.2-0.5-0.7v-95.5
			c0-0.5-0.2-0.7-0.7-0.7h-16.9c-0.5,0-0.7-0.2-0.7-0.7v-10.3c0-0.5,0.2-0.7,0.7-0.7h16.9c0.5,0,0.7-0.2,0.7-0.7v-24.9
			c0-0.6,0.2-1.1,0.5-1.2l14.2-15.1c0.6-0.3,1.1-0.5,1.2-0.5h21.3c0.5,0,0.7,0.2,0.7,0.7v10.3c0,0.5-0.2,0.7-0.7,0.7h-16.1
			c-0.5,0-0.9,0.2-1.2,0.5L498.6,130.1z"/>
		<path d="M618.1,132.6c-0.5,0-0.7-0.2-0.7-0.7v-11c0-0.5,0.2-0.7,0.7-0.7h10.3c0.5,0,0.7,0.2,0.7,0.7v11c0,0.5-0.2,0.7-0.7,0.7
			H618.1z M618.6,261.5c-0.5,0-0.7-0.2-0.7-0.7V157c0-0.5,0.2-0.7,0.7-0.7h10.5c0.3,0,0.5,0.2,0.5,0.7v103.8c0,0.5-0.2,0.7-0.5,0.7
			H618.6z"/>
	</g>
	<path d="M686.8,58.3v249.5H63.2V58.3H686.8 M699.1,46h-12.3H63.2H50.9v12.3v249.5V320h12.3h623.7h12.3v-12.3V58.3V46L699.1,46z"/>
</g>
</svg>
